# xmcd CD database file
#
# Track frame offsets:
#	150
#	18012
#	34766
#	56316
#	73305
#	92110
#	111312
#	133761
#	152501
#	170178
#	189867
#	211244
#	230809
#	246448
#	270950
#
# Disc length: 3806 seconds
#
# Revision: 2
# Processed by: cddbd v1.5.2PL0 Copyright (c) Steve Scherf et al.
# Submitted via: CDex 1.70beta2
#
DISCID=cf0edc0f
DTITLE=Various Artist - 青春歌年鑑 ’79 BEST 30 Disc 01
DYEAR=1979
DGENRE=歌謡曲
TTITLE0=夢追い酒 - 渥美  二郎
TTITLE1=魅せられて - ジュディ・オング
TTITLE2=ヤングマン - 西城  秀樹
TTITLE3=よせばいいのに - 敏  いとう と ハッピー and ブルー
TTITLE4=ガンダーラ - ゴダイゴ
TTITLE5=チャンピオン - アリス
TTITLE6=モンキー・マジック - ゴダイゴ
TTITLE7=カリフォルニア・コネクション - 水谷  豊
TTITLE8=ヒーロー - 甲斐  バンド
TTITLE9=きみの朝 - 岸田  智史
TTITLE10=セクシャルバイオレット№1 - 桑名  正博
TTITLE11=いい日旅立ち - 山口  百恵
TTITLE12=アメリカン・フィーリング - サーカス
TTITLE13=季節の中で - 松山  千春
TTITLE14=夢想花 - 円  広志
EXTD=YEAR: 1979
EXTT0=
EXTT1=
EXTT2=
EXTT3=
EXTT4=
EXTT5=
EXTT6=
EXTT7=
EXTT8=
EXTT9=
EXTT10=
EXTT11=
EXTT12=
EXTT13=
EXTT14=
PLAYORDER=
